# Blender 4.0.2
# www.blender.org
mtllib cadeira.mtl
o Cube
v 1.000000 1.780554 -1.000000
v 1.000000 1.040951 -1.000000
v 1.000000 1.780554 1.000000
v 1.000000 1.040951 1.000000
v -1.000000 1.780554 -1.000000
v -1.000000 1.040951 -1.000000
v -1.000000 1.780554 1.000000
v -1.000000 1.040951 1.000000
v -1.000000 1.040951 0.000000
v 1.000000 1.780554 0.000000
v -1.000000 1.780554 0.000000
v 1.000000 1.040951 0.000000
v 0.000000 1.040951 -1.000000
v 0.000000 1.780554 1.000000
v 0.000000 1.040951 1.000000
v 0.000000 1.780554 -1.000000
v 0.000000 1.040951 0.000000
v 0.000000 1.780554 0.000000
v -0.500000 1.040951 -1.000000
v -0.500000 1.780554 1.000000
v -0.500000 1.040951 0.000000
v -0.500000 1.040951 1.000000
v -0.500000 1.780554 -1.000000
v -0.500000 1.780554 0.000000
v 0.500000 1.040951 1.000000
v 0.500000 1.780554 -1.000000
v 0.500000 1.780554 0.000000
v 0.500000 1.040951 -1.000000
v 0.500000 1.780554 1.000000
v 0.500000 1.040951 0.000000
v -1.000000 1.780554 -0.500000
v 1.000000 1.040951 -0.500000
v -1.000000 1.040951 -0.500000
v 1.000000 1.780554 -0.500000
v 0.000000 1.780554 -0.500000
v 0.000000 1.040951 -0.500000
v -0.500000 1.040951 -0.500000
v -0.500000 1.780554 -0.500000
v 0.500000 1.780554 -0.500000
v 0.500000 1.040951 -0.500000
v -1.000000 1.040951 0.500000
v 1.000000 1.780554 0.500000
v -1.000000 1.780554 0.500000
v 1.000000 1.040951 0.500000
v 0.000000 1.040951 0.500000
v 0.000000 1.780554 0.500000
v -0.500000 1.040951 0.500000
v -0.500000 1.780554 0.500000
v 0.500000 1.780554 0.500000
v 0.500000 1.040951 0.500000
v 1.000000 1.040951 1.000000
v 0.500000 1.040951 1.000000
v 1.000000 1.040951 0.500000
v 0.500000 1.040951 0.500000
v 1.000000 1.040951 1.000000
v 0.500000 1.040951 1.000000
v 1.000000 1.040951 0.500000
v 0.500000 1.040951 0.500000
v 1.000000 1.040951 1.000000
v 0.500000 1.040951 1.000000
v 1.000000 1.040951 0.500000
v 0.500000 1.040951 0.500000
v 1.000000 0.040952 1.000000
v 0.500000 0.040952 1.000000
v 1.000000 0.040952 0.500000
v 0.500000 0.040952 0.500000
v -1.000000 0.040952 1.000000
v -0.500000 0.040952 1.000000
v -1.000000 0.040952 0.500000
v -0.500000 0.040952 0.500000
v -1.000000 0.040952 -1.000000
v -0.500000 0.040952 -1.000000
v -1.000000 0.040952 -0.500000
v -0.500000 0.040952 -0.500000
v 1.000000 0.040952 -1.000000
v 0.500000 0.040952 -1.000000
v 1.000000 0.040952 -0.500000
v 0.500000 0.040952 -0.500000
v 1.000000 3.280554 1.000000
v -1.000000 3.280554 1.000000
v 0.000000 3.280554 1.000000
v -0.500000 3.280554 1.000000
v 0.500000 3.280554 1.000000
v 1.000000 3.280554 0.500000
v -1.000000 3.280554 0.500000
v 0.000000 3.280554 0.500000
v -0.500000 3.280554 0.500000
v 0.500000 3.280554 0.500000
vn -0.0000 -0.0000 1.0000
vn -1.0000 -0.0000 -0.0000
vn -0.0000 1.0000 -0.0000
vn 1.0000 -0.0000 -0.0000
vn -0.0000 -0.0000 -1.0000
vn -0.0000 -1.0000 -0.0000
vt 0.500000 0.517496
vt 0.250000 0.736554
vt 0.250000 0.517496
vt 0.000000 0.409485
vt 0.250000 0.409485
vt 0.750000 0.517496
vt 1.000000 0.409485
vt 0.750000 0.409485
vt 1.000000 0.000000
vt 0.750000 0.000000
vt 0.500000 0.409485
vt 1.000000 0.750000
vt 0.750000 0.500000
vt 0.750000 0.750000
vt 0.000000 0.750000
vt 0.250000 0.500000
vt 0.250000 0.750000
vt 0.500000 0.750000
vt 0.500000 0.250000
vt 0.250000 0.000000
vt 0.250000 0.250000
vt 1.000000 0.736554
vt 1.000000 0.517496
vt 0.000000 0.263446
vt 0.000000 0.517496
vt 0.000000 0.500000
vt 0.500000 0.500000
vt 0.750000 0.736554
vt 0.500000 0.736554
vt 1.000000 0.500000
vt 0.750000 0.250000
vt 0.500000 0.000000
vt 0.750000 1.000000
vt 0.500000 1.000000
vt 1.000000 1.000000
vt 0.250000 1.000000
vt 0.000000 1.000000
vt 0.750000 0.263446
vt 1.000000 0.250000
vt 0.000000 0.250000
vt 0.250000 0.263446
vt 1.000000 0.263446
vt 0.000000 0.000000
vt 0.000000 0.736554
s 0
usemtl Material
f 14/1/1 82/2/1 20/3/1
f 20/3/1 8/4/1 22/5/1
f 31/6/2 6/7/2 33/8/2
f 4/9/3 52/10/3 51/9/3
f 42/3/4 4/4/4 44/5/4
f 26/6/5 2/7/5 28/8/5
f 34/6/4 12/11/4 32/8/4
f 32/12/6 30/13/6 40/14/6
f 43/3/2 9/11/2 41/5/2
f 31/15/3 24/16/3 38/17/3
f 35/18/3 27/13/3 39/14/3
f 36/18/6 21/16/6 37/17/6
f 23/3/5 13/11/5 19/5/5
f 45/19/6 22/20/6 47/21/6
f 29/6/1 15/11/1 25/8/1
f 49/6/5 84/22/5 42/23/5
f 47/5/5 69/24/5 41/4/5
f 5/25/5 19/5/5 6/4/5
f 37/17/6 9/26/6 33/15/6
f 38/17/3 18/27/3 35/18/3
f 14/1/1 22/5/1 15/11/1
f 46/1/5 88/28/5 49/6/5
f 29/6/1 81/29/1 14/1/1
f 3/23/1 25/8/1 4/7/1
f 39/14/3 10/30/3 34/12/3
f 40/14/6 17/27/6 36/18/6
f 16/1/5 28/8/5 13/11/5
f 50/31/6 15/32/6 45/19/6
f 28/33/6 36/18/6 13/34/6
f 26/33/3 34/12/3 1/35/3
f 23/36/3 35/18/3 16/34/3
f 19/5/5 71/24/5 6/4/5
f 13/34/6 37/17/6 19/36/6
f 16/34/3 39/14/3 26/33/3
f 5/37/3 38/17/3 23/36/3
f 28/7/2 78/38/2 40/8/2
f 1/23/4 32/8/4 2/7/4
f 11/1/2 33/8/2 9/11/2
f 30/13/6 45/19/6 17/27/6
f 27/13/3 42/39/3 10/30/3
f 24/16/3 46/19/3 18/27/3
f 21/16/6 41/40/6 9/26/6
f 18/27/3 49/31/3 27/13/3
f 17/27/6 47/21/6 21/16/6
f 7/25/2 41/5/2 8/4/2
f 10/1/4 44/5/4 12/11/4
f 12/30/6 50/31/6 30/13/6
f 11/26/3 48/21/3 24/16/3
f 53/39/3 55/9/3 57/39/3
f 50/31/3 53/39/3 54/31/3
f 44/39/3 51/9/3 53/39/3
f 25/10/3 54/31/3 52/10/3
f 55/9/3 60/10/3 59/9/3
f 51/9/3 56/10/3 55/9/3
f 54/31/3 57/39/3 58/31/3
f 52/10/3 58/31/3 56/10/3
f 59/4/4 65/41/4 61/5/4
f 58/31/3 61/39/3 62/31/3
f 56/10/3 62/31/3 60/10/3
f 57/39/3 59/9/3 61/39/3
f 65/39/6 64/10/6 66/31/6
f 60/8/1 63/42/1 59/7/1
f 61/7/5 66/38/5 62/8/5
f 62/5/2 64/24/2 60/4/2
f 70/21/6 67/43/6 69/40/6
f 8/4/1 68/41/1 22/5/1
f 41/5/2 67/24/2 8/4/2
f 22/4/4 70/41/4 47/5/4
f 72/36/6 73/15/6 71/37/6
f 37/8/4 72/42/4 19/7/4
f 6/7/2 73/38/2 33/8/2
f 33/4/1 74/41/1 37/5/1
f 75/35/6 78/14/6 76/33/6
f 32/8/4 75/42/4 2/7/4
f 40/8/1 77/42/1 32/7/1
f 2/7/5 76/38/5 28/8/5
f 85/40/3 82/20/3 87/21/3
f 86/19/3 83/10/3 88/31/3
f 87/21/3 81/32/3 86/19/3
f 88/31/3 79/9/3 84/39/3
f 20/3/1 80/44/1 7/25/1
f 48/3/5 86/29/5 46/1/5
f 43/25/5 87/2/5 48/3/5
f 7/25/2 85/2/2 43/3/2
f 42/3/4 79/44/4 3/25/4
f 3/23/1 83/28/1 29/6/1
f 14/1/1 81/29/1 82/2/1
f 20/3/1 7/25/1 8/4/1
f 31/6/2 5/23/2 6/7/2
f 4/9/3 25/10/3 52/10/3
f 42/3/4 3/25/4 4/4/4
f 26/6/5 1/23/5 2/7/5
f 34/6/4 10/1/4 12/11/4
f 32/12/6 12/30/6 30/13/6
f 43/3/2 11/1/2 9/11/2
f 31/15/3 11/26/3 24/16/3
f 35/18/3 18/27/3 27/13/3
f 36/18/6 17/27/6 21/16/6
f 23/3/5 16/1/5 13/11/5
f 45/19/6 15/32/6 22/20/6
f 29/6/1 14/1/1 15/11/1
f 49/6/5 88/28/5 84/22/5
f 47/5/5 70/41/5 69/24/5
f 5/25/5 23/3/5 19/5/5
f 37/17/6 21/16/6 9/26/6
f 38/17/3 24/16/3 18/27/3
f 14/1/1 20/3/1 22/5/1
f 46/1/5 86/29/5 88/28/5
f 29/6/1 83/28/1 81/29/1
f 3/23/1 29/6/1 25/8/1
f 39/14/3 27/13/3 10/30/3
f 40/14/6 30/13/6 17/27/6
f 16/1/5 26/6/5 28/8/5
f 50/31/6 25/10/6 15/32/6
f 28/33/6 40/14/6 36/18/6
f 26/33/3 39/14/3 34/12/3
f 23/36/3 38/17/3 35/18/3
f 19/5/5 72/41/5 71/24/5
f 13/34/6 36/18/6 37/17/6
f 16/34/3 35/18/3 39/14/3
f 5/37/3 31/15/3 38/17/3
f 28/7/2 76/42/2 78/38/2
f 1/23/4 34/6/4 32/8/4
f 11/1/2 31/6/2 33/8/2
f 30/13/6 50/31/6 45/19/6
f 27/13/3 49/31/3 42/39/3
f 24/16/3 48/21/3 46/19/3
f 21/16/6 47/21/6 41/40/6
f 18/27/3 46/19/3 49/31/3
f 17/27/6 45/19/6 47/21/6
f 7/25/2 43/3/2 41/5/2
f 10/1/4 42/3/4 44/5/4
f 12/30/6 44/39/6 50/31/6
f 11/26/3 43/40/3 48/21/3
f 53/39/3 51/9/3 55/9/3
f 50/31/3 44/39/3 53/39/3
f 44/39/3 4/9/3 51/9/3
f 25/10/3 50/31/3 54/31/3
f 55/9/3 56/10/3 60/10/3
f 51/9/3 52/10/3 56/10/3
f 54/31/3 53/39/3 57/39/3
f 52/10/3 54/31/3 58/31/3
f 59/4/4 63/24/4 65/41/4
f 58/31/3 57/39/3 61/39/3
f 56/10/3 58/31/3 62/31/3
f 57/39/3 55/9/3 59/9/3
f 65/39/6 63/9/6 64/10/6
f 60/8/1 64/38/1 63/42/1
f 61/7/5 65/42/5 66/38/5
f 62/5/2 66/41/2 64/24/2
f 70/21/6 68/20/6 67/43/6
f 8/4/1 67/24/1 68/41/1
f 41/5/2 69/41/2 67/24/2
f 22/4/4 68/24/4 70/41/4
f 72/36/6 74/17/6 73/15/6
f 37/8/4 74/38/4 72/42/4
f 6/7/2 71/42/2 73/38/2
f 33/4/1 73/24/1 74/41/1
f 75/35/6 77/12/6 78/14/6
f 32/8/4 77/38/4 75/42/4
f 40/8/1 78/38/1 77/42/1
f 2/7/5 75/42/5 76/38/5
f 85/40/3 80/43/3 82/20/3
f 86/19/3 81/32/3 83/10/3
f 87/21/3 82/20/3 81/32/3
f 88/31/3 83/10/3 79/9/3
f 20/3/1 82/2/1 80/44/1
f 48/3/5 87/2/5 86/29/5
f 43/25/5 85/44/5 87/2/5
f 7/25/2 80/44/2 85/2/2
f 42/3/4 84/2/4 79/44/4
f 3/23/1 79/22/1 83/28/1
