# Blender 4.0.1
# www.blender.org
mtllib donut.mtl
o donut
v -0.044053 0.035540 0.150690
v -0.047752 0.036809 0.155646
v -0.063329 0.059486 0.135532
v -0.066294 0.058851 0.142429
v -0.067982 0.070415 0.125683
v -0.074890 0.074052 0.131210
v -0.052959 0.049399 0.137128
v -0.060459 0.049741 0.149789
v -0.053267 0.066644 0.119675
v -0.016953 0.021593 0.161001
v -0.019474 0.022834 0.162769
v -0.026356 0.027307 0.149485
v -0.031380 0.027731 0.160687
v 0.001835 0.015931 0.162163
v 0.006808 0.015538 0.160226
v -0.001383 0.023112 0.146694
v -0.026375 0.047262 0.131311
v -0.024589 0.066437 0.116206
v 0.000689 0.049349 0.132142
v 0.003455 0.063077 0.130155
v -0.019321 0.065620 0.119898
v -0.002938 0.075245 0.129292
v -0.047352 0.064756 0.188344
v -0.036220 0.073681 0.189482
v -0.064988 0.078437 0.165287
v -0.072548 0.095055 0.153393
v -0.060307 0.111742 0.156395
v -0.060380 0.072145 0.173601
v -0.038227 0.088153 0.180759
v -0.057232 0.098043 0.164925
v -0.048234 0.108546 0.166888
v -0.015920 0.045367 0.195904
v -0.024575 0.051866 0.195393
v -0.019767 0.075449 0.192675
v 0.003199 0.041114 0.197490
v 0.003988 0.057365 0.196461
v 0.003595 0.070951 0.194944
v -0.010876 0.093652 0.166651
v -0.018137 0.093281 0.180158
v -0.010799 0.095658 0.160126
v -0.027300 0.105046 0.166555
v -0.001916 0.088869 0.164490
v 0.002015 0.079362 0.187375
v -0.004607 0.090596 0.157679
v -0.069578 0.089292 0.109350
v -0.076395 0.093118 0.115257
v -0.069881 0.104554 0.097038
v -0.072390 0.108385 0.100164
v -0.055726 0.085388 0.103949
v -0.062241 0.108646 0.085601
v -0.063872 0.118643 0.089712
v -0.051349 0.121212 0.078252
v -0.054399 0.129824 0.083220
v -0.022652 0.085348 0.101870
v -0.030965 0.103810 0.084292
v -0.011690 0.091877 0.106057
v -0.006219 0.096397 0.109530
v -0.003838 0.102445 0.088574
v 0.005311 0.100728 0.096988
v -0.034176 0.126888 0.069291
v -0.039356 0.136773 0.072751
v -0.024342 0.137184 0.065951
v -0.034119 0.140035 0.069490
v -0.007957 0.123696 0.066490
v -0.007907 0.138400 0.062131
v -0.008066 0.146077 0.063918
v -0.072395 0.116747 0.142910
v -0.061692 0.121732 0.150672
v -0.071355 0.130518 0.126179
v -0.061588 0.131578 0.139599
v -0.051347 0.129856 0.155211
v -0.065905 0.142881 0.120891
v -0.054556 0.142363 0.136082
v -0.053153 0.154896 0.110264
v -0.043428 0.154718 0.121926
v -0.015759 0.114799 0.145042
v -0.030986 0.130461 0.150227
v -0.022324 0.144140 0.138311
v -0.006343 0.117983 0.131139
v -0.009972 0.129607 0.137821
v 0.006367 0.131279 0.129938
v 0.004982 0.156187 0.126286
v -0.035898 0.163111 0.101928
v -0.024001 0.161252 0.121594
v -0.025219 0.168693 0.094879
v -0.017183 0.168717 0.104910
v 0.002214 0.167470 0.120060
v -0.009629 0.173758 0.094196
v -0.005658 0.172150 0.104832
v 0.025036 0.018308 0.156503
v 0.026973 0.019892 0.160980
v 0.024359 0.023956 0.142178
v 0.040722 0.021558 0.155078
v 0.044755 0.029321 0.167685
v 0.049618 0.026301 0.143404
v 0.056096 0.035080 0.162233
v 0.022218 0.048643 0.128497
v 0.011923 0.062767 0.128269
v 0.026689 0.070621 0.120725
v 0.022890 0.079125 0.122733
v 0.044180 0.049100 0.124238
v 0.043349 0.067992 0.111330
v 0.068009 0.034617 0.139759
v 0.064876 0.032609 0.137495
v 0.075573 0.047653 0.125908
v 0.081544 0.051163 0.132057
v 0.073825 0.066136 0.108501
v 0.085270 0.058384 0.123112
v 0.085783 0.056085 0.127875
v 0.085492 0.070350 0.111224
v 0.088420 0.072332 0.114458
v 0.027933 0.042430 0.195408
v 0.029754 0.057941 0.194629
v 0.025944 0.070401 0.193899
v 0.045960 0.045591 0.189179
v 0.054940 0.050289 0.186326
v 0.051659 0.072925 0.186233
v 0.019008 0.091520 0.163911
v 0.028714 0.088577 0.176545
v 0.031054 0.098104 0.148850
v 0.034964 0.096611 0.161664
v 0.049597 0.092951 0.177059
v 0.037148 0.103605 0.151552
v 0.051454 0.104136 0.165660
v 0.074390 0.057999 0.177965
v 0.068059 0.074233 0.180540
v 0.087715 0.070750 0.166494
v 0.072440 0.092461 0.172912
v 0.076431 0.109956 0.159551
v 0.097138 0.079489 0.156121
v 0.087294 0.092611 0.160773
v 0.101523 0.096697 0.144352
v 0.089013 0.104263 0.154208
v 0.026128 0.092956 0.101577
v 0.016450 0.096874 0.111883
v 0.017467 0.103352 0.085365
v 0.010015 0.101039 0.096657
v 0.042031 0.086080 0.095912
v 0.041912 0.102422 0.078140
v 0.017133 0.126799 0.058608
v 0.015746 0.139194 0.054636
v 0.011916 0.145553 0.057385
v 0.044853 0.128305 0.057301
v 0.050224 0.143659 0.071562
v 0.034363 0.136251 0.057412
v 0.037567 0.147982 0.069021
v 0.073785 0.085558 0.091316
v 0.073396 0.106204 0.074424
v 0.075561 0.121962 0.087942
v 0.086235 0.088658 0.094732
v 0.089256 0.082677 0.104616
v 0.081907 0.101771 0.085300
v 0.084162 0.097053 0.091172
v 0.060467 0.123425 0.062001
v 0.056836 0.139796 0.072387
v 0.021303 0.118022 0.130870
v 0.033045 0.128836 0.133883
v 0.016153 0.131368 0.130591
v 0.022962 0.147800 0.126832
v 0.036013 0.115813 0.143665
v 0.047695 0.129616 0.144882
v 0.044954 0.146136 0.131093
v 0.026997 0.166708 0.101316
v 0.020946 0.163419 0.116293
v 0.018684 0.171219 0.084700
v 0.010848 0.168948 0.102391
v 0.047582 0.162542 0.093451
v 0.044741 0.157736 0.116191
v 0.036516 0.166435 0.089112
v 0.082294 0.129797 0.127603
v 0.073298 0.130439 0.143386
v 0.082151 0.137592 0.107399
v 0.066154 0.144023 0.123769
v 0.096863 0.117117 0.122512
v 0.086345 0.119276 0.139575
v 0.089784 0.127767 0.111286
v 0.065886 0.149352 0.097113
v 0.058184 0.150472 0.113673
vn -0.6566 -0.6397 -0.3997
vn -0.6299 -0.7006 -0.3352
vn -0.5079 -0.6172 -0.6009
vn -0.4707 -0.8807 -0.0526
vn -0.2234 -0.9184 0.3264
vn -0.2479 -0.8974 -0.3650
vn 0.3823 -0.2073 -0.9005
vn 0.0677 -0.5454 -0.8355
vn -0.4548 -0.8833 -0.1134
vn -0.2062 -0.6979 -0.6859
vn -0.6050 -0.7205 -0.3389
vn -0.1921 -0.6609 -0.7255
vn -0.3418 -0.6330 -0.6946
vn -0.4973 0.3293 0.8026
vn -0.6093 0.3161 0.7273
vn -0.7219 0.2971 0.6250
vn -0.0614 0.1266 0.9900
vn -0.0678 0.0663 0.9955
vn 0.5507 0.7960 0.2512
vn 0.5043 0.8121 0.2934
vn 0.4771 0.8782 0.0342
vn -0.2160 0.1463 0.9654
vn -0.1558 0.6928 0.7041
vn -0.5494 0.4438 0.7079
vn 0.0582 0.6738 0.7366
vn -0.2165 0.4818 0.8491
vn -0.8889 -0.2982 -0.3478
vn -0.7773 0.0044 -0.6291
vn -0.4329 -0.5712 -0.6974
vn 0.6795 -0.7218 -0.1311
vn 0.5611 -0.7955 -0.2288
vn -0.3362 0.0157 -0.9417
vn -0.2597 0.2627 -0.9293
vn -0.1275 -0.1937 -0.9727
vn -0.0457 -0.6995 -0.7131
vn -0.6226 0.2138 -0.7527
vn -0.6839 0.1792 -0.7072
vn 0.0745 -0.7116 -0.6986
vn -0.1045 -0.4331 -0.8953
vn -0.6741 0.5903 0.4440
vn -0.7109 0.5172 0.4765
vn -0.6604 0.5642 0.4955
vn 0.4365 -0.3421 0.8321
vn 0.5032 0.2119 0.8378
vn 0.4812 0.3824 0.7888
vn -0.3141 0.9160 0.2495
vn -0.2915 0.9282 0.2313
vn -0.1994 0.9223 0.3312
vn 0.1052 0.8403 0.5318
vn -0.3053 0.9136 0.2685
vn -0.4442 0.8100 0.3828
vn 0.0064 0.6991 0.7150
vn -0.0858 0.7830 0.6160
vn 0.6122 -0.7761 0.1513
vn 0.2178 -0.9459 0.2404
vn 0.1564 -0.9163 -0.3687
vn -0.3292 -0.2546 -0.9093
vn -0.1759 -0.2962 -0.9388
vn 0.7822 -0.4463 -0.4347
vn 0.6464 -0.7339 -0.2087
vn 0.4565 -0.5867 -0.6689
vn 0.4500 -0.8586 0.2455
vn 0.0071 -0.6852 -0.7283
vn 0.0957 -0.6270 -0.7731
vn -0.6573 0.6939 0.2941
vn 0.1271 -0.6203 -0.7740
vn 0.2704 0.1385 0.9527
vn 0.3251 0.0093 0.9456
vn -0.2735 0.9423 0.1932
vn -0.7089 0.6424 0.2911
vn -0.1973 0.8949 0.4003
vn 0.6897 0.2808 0.6675
vn 0.6174 0.2103 0.7580
vn 0.5747 0.4098 0.7083
vn 0.3239 0.0508 0.9447
vn 0.1429 0.6947 0.7049
vn 0.1507 0.6706 0.7264
vn 0.5903 0.1032 0.8005
vn 0.2667 0.4239 0.8655
vn -0.3166 -0.8663 -0.3864
vn -0.4883 -0.6440 -0.5889
vn 0.4034 0.5429 -0.7365
vn 0.3089 0.5280 -0.7911
vn -0.0446 -0.0450 -0.9980
vn 0.9554 0.1219 -0.2690
vn 0.8052 0.3185 -0.5002
vn 0.3407 -0.4723 -0.8129
vn -0.1094 -0.7321 -0.6724
vn 0.4078 0.5407 -0.7358
vn -0.2177 -0.7354 -0.6417
vn 0.8347 0.2880 -0.4694
vn -0.0231 -0.5963 -0.8025
vn -0.1991 -0.0563 0.9783
vn -0.5624 0.4108 0.7176
vn -0.5418 0.4838 0.6873
vn 0.1473 0.9707 0.1899
vn 0.2232 0.9293 0.2942
vn 0.2617 0.9477 0.1830
vn 0.5945 0.7516 0.2858
vn 0.6657 0.6576 0.3527
vn 0.6833 0.6938 0.2274
vn 0.0067 0.8233 0.5676
vn 0.4959 0.8350 0.2385
vn -0.0593 0.7873 0.6137
vn 0.5013 0.8472 0.1759
vn 0.2245 0.8919 0.3925
vn -0.1545 0.8127 -0.5618
vn -0.0093 -0.9077 -0.4195
vn -0.2197 -0.0962 -0.9708
vn -0.2201 -0.1836 -0.9580
vn -0.1373 -0.4721 -0.8708
vn 0.0492 0.1122 0.9925
vn 0.0806 0.0591 0.9950
vn -0.1046 0.9119 0.3968
vn -0.1127 0.9517 0.2858
vn 0.0511 0.6733 0.7376
vn 0.0100 -0.9776 -0.2103
vn 0.0497 -0.9573 -0.2849
vn -0.2988 0.2104 -0.9308
vn -0.2572 -0.2738 -0.9267
vn -0.0722 -0.7254 -0.6845
vn 0.0386 0.1471 0.9884
vn 0.0096 0.0809 0.9967
vn 0.2003 0.9770 0.0730
vn 0.2453 0.9488 0.1992
vn 0.2391 0.5641 0.7903
vn -0.7110 -0.4935 -0.5009
vn -0.4282 -0.6131 -0.6639
vn 0.6326 -0.4970 -0.5940
vn 0.4064 -0.5781 -0.7076
vn -0.0962 -0.6471 -0.7563
vn -0.8856 -0.3149 -0.3414
vn -0.4671 -0.5822 -0.6654
vn 0.7054 -0.4900 -0.5122
vn 0.3826 -0.6118 -0.6923
vn -0.1094 -0.6494 -0.7525
vn -0.6340 0.3401 0.6945
vn -0.5679 0.3302 0.7540
vn 0.5625 0.5968 0.5723
vn 0.6581 0.5638 0.4990
vn 0.1049 0.5483 0.8297
vn -0.6611 0.3628 0.6567
vn -0.6372 0.3755 0.6730
vn 0.7295 0.5703 0.3775
vn 0.5271 0.6394 0.5599
vn 0.0407 0.6351 0.7714
vn -0.9080 -0.2911 0.3013
vn -0.8939 -0.3139 0.3200
vn -0.3987 -0.7379 0.5445
vn -0.2236 -0.7947 0.5644
vn -0.7261 -0.4996 0.4724
vn -0.5333 -0.6398 0.5534
vn -0.9821 0.1609 -0.0978
vn -0.8622 0.4022 -0.3079
vn -0.6580 0.5961 -0.4601
vn -0.3007 0.6831 -0.6656
vn -0.8007 0.4466 -0.3994
vn -0.5605 0.6201 -0.5490
vn 0.5677 -0.6836 0.4587
vn 0.2339 -0.8165 0.5279
vn 0.9486 -0.2784 -0.1507
vn 0.7759 -0.5980 0.2011
vn 0.7571 -0.6186 0.2101
vn 0.4939 -0.7244 0.4810
vn 0.3650 0.7263 -0.5825
vn 0.2516 0.6734 -0.6951
vn 0.9298 -0.0143 -0.3677
vn 0.7513 0.3665 -0.5489
vn 0.7828 0.4278 -0.4519
vn 0.5708 0.6545 -0.4957
vn -0.9950 0.0052 0.1001
vn 0.9936 0.0825 -0.0767
vn -0.9232 -0.1098 0.3683
vn 0.9438 -0.2647 -0.1980
vn 0.1532 -0.8078 0.5693
vn -0.2915 0.8341 -0.4682
vn -0.0583 -0.7064 0.7054
vn -0.1599 0.7244 -0.6705
vn -0.6798 -0.6438 -0.3514
vn -0.6304 -0.6904 -0.3548
vn -0.4163 -0.7001 -0.5802
vn -0.3585 -0.9250 -0.1257
vn 0.2362 0.8718 0.4292
vn -0.1909 -0.9324 -0.3068
vn 0.4200 0.1573 -0.8938
vn 0.4002 -0.5898 -0.7014
vn -0.4254 -0.8913 -0.1570
vn -0.0995 -0.6100 -0.7861
vn -0.6205 -0.7343 -0.2753
vn 0.0644 -0.4879 -0.8705
vn -0.1988 -0.7477 -0.6336
vn -0.5174 0.2930 0.8040
vn -0.5633 0.3420 0.7522
vn -0.6128 0.2562 0.7475
vn -0.0754 0.1085 0.9912
vn -0.0417 0.0229 0.9989
vn 0.5403 0.7815 0.3119
vn 0.4823 0.8352 0.2641
vn 0.6685 0.7086 0.2257
vn -0.2041 0.1531 0.9669
vn 0.1123 0.5959 0.7952
vn -0.4221 0.4244 0.8011
vn 0.0976 0.5658 0.8188
vn -0.1233 0.5777 0.8069
vn -0.7183 -0.3847 -0.5797
vn -0.8420 0.0818 -0.5332
vn -0.5415 -0.6089 -0.5797
vn 0.0676 -0.9606 -0.2696
vn 0.0833 -0.6672 -0.7402
vn -0.5353 0.0151 -0.8445
vn -0.2362 0.2156 -0.9475
vn -0.1979 -0.2779 -0.9400
vn -0.1302 -0.6363 -0.7604
vn -0.4767 0.0573 -0.8772
vn -0.6840 0.1674 -0.7100
vn -0.1548 -0.5535 -0.8183
vn -0.2347 -0.5525 -0.7998
vn -0.6380 0.5784 0.5083
vn -0.6421 0.5815 0.4995
vn -0.6486 0.5826 0.4897
vn 0.4165 0.1545 0.8959
vn 0.8326 -0.0568 0.5509
vn 0.3060 0.2289 0.9241
vn -0.3159 0.9075 0.2769
vn -0.2753 0.9300 0.2435
vn -0.2587 0.8777 0.4034
vn -0.0878 0.6853 0.7229
vn -0.3028 0.9141 0.2696
vn -0.4473 0.8178 0.3621
vn -0.0602 0.4709 0.8801
vn -0.2138 0.6718 0.7092
vn 0.5441 -0.7809 0.3068
vn 0.2893 -0.8536 0.4331
vn 0.1027 -0.9464 -0.3062
vn -0.4574 0.0058 -0.8892
vn -0.4824 -0.5085 -0.7132
vn 0.8872 -0.3707 -0.2745
vn 0.6296 -0.6710 -0.3916
vn 0.3877 -0.6533 -0.6503
vn -0.4348 0.8822 -0.1810
vn -0.1103 -0.5640 -0.8184
vn -0.1562 -0.4891 -0.8581
vn 0.6771 -0.6862 -0.2658
vn 0.0028 -0.7290 -0.6845
vn 0.3267 0.0513 0.9437
vn 0.3093 -0.0138 0.9509
vn -0.2308 0.8934 0.3854
vn -0.4589 0.7741 0.4362
vn -0.4495 0.6731 0.5873
vn 0.6920 0.2742 0.6678
vn 0.6305 0.2079 0.7479
vn 0.4996 0.3681 0.7842
vn 0.3925 0.0072 0.9197
vn 0.0563 0.5978 0.7996
vn -0.1072 0.4049 0.9080
vn 0.5928 0.1854 0.7837
vn 0.1749 0.3440 0.9225
vn -0.4319 -0.8997 -0.0636
vn -0.1707 -0.8683 -0.4657
vn 0.3507 0.6086 -0.7118
vn 0.2118 0.6576 -0.7230
vn 0.0953 -0.2941 -0.9510
vn 0.9672 0.1526 -0.2033
vn 0.9437 0.3113 -0.1123
vn 0.5572 -0.5195 -0.6478
vn -0.0152 -0.6333 -0.7737
vn 0.3939 0.5531 -0.7341
vn -0.0027 -0.6269 -0.7791
vn 0.7838 0.4472 -0.4309
vn 0.0370 -0.6292 -0.7763
vn -0.1437 0.2769 0.9501
vn -0.5611 0.4115 0.7182
vn -0.1639 0.2660 0.9499
vn 0.1499 0.9513 0.2694
vn 0.2772 0.9324 0.2317
vn 0.2211 0.9635 0.1510
vn 0.5880 0.7493 0.3047
vn 0.6823 0.6480 0.3386
vn 0.7154 0.6536 0.2471
vn 0.3073 0.6393 0.7049
vn 0.5464 0.8135 0.1991
vn 0.1387 0.5662 0.8125
vn 0.4984 0.8535 0.1518
vn 0.4769 0.6969 0.5356
vn 0.1623 -0.9502 0.2660
vn -0.0336 -0.9303 -0.3652
vn -0.1697 -0.1395 -0.9756
vn -0.2167 -0.1794 -0.9596
vn -0.1611 -0.4891 -0.8572
vn 0.0689 0.0793 0.9945
vn 0.0699 0.0418 0.9967
vn -0.1759 0.9203 0.3495
vn -0.1201 0.9413 0.3155
vn 0.0583 0.6847 0.7265
vn 0.0535 -0.9846 -0.1664
vn 0.0438 -0.9588 -0.2808
vn -0.3014 0.2196 -0.9279
vn -0.2763 -0.3212 -0.9058
vn -0.1129 -0.7480 -0.6540
vn -0.0667 0.2487 0.9663
vn -0.0665 -0.0048 0.9978
vn 0.1512 0.9698 0.1915
vn 0.2134 0.9594 0.1845
vn 0.2747 0.5153 0.8118
vn -0.6863 -0.4978 -0.5302
vn -0.4311 -0.6110 -0.6640
vn 0.7078 -0.4206 -0.5676
vn 0.5545 -0.5085 -0.6588
vn -0.0509 -0.6000 -0.7984
vn -0.7070 -0.5375 -0.4596
vn -0.4848 -0.5875 -0.6479
vn 0.7793 -0.4638 -0.4213
vn 0.3474 -0.6353 -0.6897
vn -0.1184 -0.6581 -0.7435
vn -0.6484 0.3087 0.6958
vn -0.5883 0.3390 0.7341
vn 0.6743 0.4659 0.5729
vn 0.6147 0.5686 0.5466
vn 0.1930 0.4930 0.8483
vn -0.6007 0.4501 0.6607
vn -0.5760 0.3741 0.7268
vn 0.6942 0.5619 0.4499
vn 0.6262 0.5398 0.5626
vn 0.0258 0.6217 0.7828
vn -0.9312 -0.2105 0.2977
vn -0.9127 -0.2962 0.2817
vn -0.5206 -0.6498 0.5539
vn -0.1748 -0.8196 0.5456
vn -0.7606 -0.4889 0.4271
vn -0.5278 -0.6453 0.5522
vn -0.9917 0.1223 0.0390
vn -0.9168 0.2841 -0.2806
vn -0.6325 0.6144 -0.4717
vn -0.2584 0.7063 -0.6591
vn -0.7827 0.4740 -0.4034
vn -0.6213 0.6169 -0.4832
vn 0.5210 -0.6944 0.4964
vn 0.3267 -0.7623 0.5587
vn 0.9330 -0.3323 -0.1382
vn 0.8080 -0.5703 0.1477
vn 0.7643 -0.6098 0.2099
vn 0.6364 -0.7119 0.2970
vn 0.4636 0.6645 -0.5861
vn 0.3428 0.7007 -0.6257
vn 0.8887 0.1260 -0.4408
vn 0.8111 0.2092 -0.5462
vn 0.6848 0.4371 -0.5831
vn 0.4893 0.7382 -0.4644
vn -0.9938 0.0541 0.0975
vn 0.9968 0.0787 0.0160
vn -0.9221 -0.1190 0.3682
vn 0.9599 -0.0710 -0.2713
vn 0.0901 -0.8344 0.5437
vn -0.2538 0.8185 -0.5155
vn 0.0082 -0.6691 0.7431
vn -0.1919 0.7385 -0.6464
s 0
usemtl Material.002
f 3//1 6//1 5//1
f 7//2 4//2 3//2
f 3//3 9//3 7//3
f 11//4 12//4 10//4
f 10//5 15//5 11//5
f 10//6 16//6 14//6
f 21//7 20//7 19//7
f 17//8 21//8 19//8
f 1//9 13//9 2//9
f 9//10 17//10 7//10
f 1//11 8//11 7//11
f 17//12 16//12 12//12
f 1//13 17//13 12//13
f 29//14 30//14 28//14
f 30//15 27//15 26//15
f 30//16 25//16 28//16
f 36//17 34//17 33//17
f 36//18 32//18 35//18
f 41//19 38//19 40//19
f 39//20 42//20 38//20
f 44//21 38//21 42//21
f 33//22 24//22 23//22
f 41//23 29//23 39//23
f 23//24 29//24 28//24
f 43//25 34//25 37//25
f 34//26 29//26 24//26
f 45//27 48//27 47//27
f 51//28 47//28 48//28
f 47//29 49//29 45//29
f 58//30 57//30 56//30
f 54//31 58//31 56//31
f 60//32 63//32 62//32
f 66//33 62//33 63//33
f 62//34 64//34 60//34
f 49//35 55//35 54//35
f 61//36 52//36 53//36
f 51//37 52//37 50//37
f 55//38 64//38 58//38
f 52//39 55//39 50//39
f 67//40 70//40 69//40
f 70//41 72//41 69//41
f 71//42 70//42 68//42
f 81//43 80//43 79//43
f 76//44 80//44 77//44
f 80//45 78//45 77//45
f 83//46 86//46 85//46
f 86//47 88//47 85//47
f 87//48 86//48 84//48
f 77//49 73//49 71//49
f 75//50 83//50 74//50
f 72//51 75//51 74//51
f 82//52 84//52 78//52
f 78//53 75//53 73//53
f 96//54 93//54 95//54
f 93//55 91//55 90//55
f 92//56 93//56 90//56
f 98//57 99//57 97//57
f 99//58 101//58 97//58
f 111//59 108//59 110//59
f 105//60 109//60 106//60
f 107//61 108//61 105//61
f 95//62 104//62 96//62
f 101//63 107//63 105//63
f 92//64 101//64 95//64
f 105//65 104//65 103//65
f 101//66 103//66 95//66
f 113//67 117//67 114//67
f 115//68 113//68 112//68
f 118//69 121//69 120//69
f 121//70 123//70 120//70
f 122//71 121//71 119//71
f 132//72 131//72 130//72
f 127//73 131//73 128//73
f 131//74 129//74 128//74
f 116//75 126//75 117//75
f 128//76 124//76 122//76
f 117//77 119//77 114//77
f 127//78 126//78 125//78
f 126//79 122//79 117//79
f 134//80 137//80 136//80
f 134//81 139//81 138//81
f 145//82 144//82 143//82
f 146//83 141//83 142//83
f 140//84 145//84 143//84
f 153//85 150//85 152//85
f 149//86 152//86 148//86
f 147//87 152//87 150//87
f 139//88 147//88 138//88
f 155//89 143//89 144//89
f 140//90 139//90 136//90
f 154//91 149//91 148//91
f 139//92 154//92 148//92
f 157//93 158//93 156//93
f 160//94 157//94 156//94
f 162//95 157//95 161//95
f 166//96 163//96 165//96
f 168//97 163//97 164//97
f 169//98 163//98 167//98
f 173//99 170//99 172//99
f 175//100 170//100 171//100
f 176//101 170//101 174//101
f 173//102 161//102 171//102
f 178//103 167//103 168//103
f 168//104 159//104 162//104
f 178//105 172//105 177//105
f 178//106 162//106 173//106
f 14//107 91//107 15//107
f 16//108 90//108 14//108
f 98//109 19//109 20//109
f 22//110 98//110 20//110
f 19//111 92//111 16//111
f 36//112 114//112 37//112
f 112//113 36//113 35//113
f 43//114 118//114 42//114
f 118//115 44//115 42//115
f 114//116 43//116 37//116
f 136//117 59//117 58//117
f 59//118 135//118 57//118
f 142//119 65//119 66//119
f 65//120 140//120 64//120
f 64//121 136//121 58//121
f 81//122 159//122 82//122
f 156//123 81//123 79//123
f 166//124 88//124 89//124
f 166//125 87//125 164//125
f 164//126 82//126 159//126
f 5//127 46//127 45//127
f 5//128 49//128 9//128
f 56//129 22//129 21//129
f 54//130 21//130 18//130
f 49//131 18//131 9//131
f 100//132 134//132 99//132
f 134//133 102//133 99//133
f 151//134 110//134 150//134
f 147//135 110//135 107//135
f 138//136 107//136 102//136
f 27//137 67//137 26//137
f 71//138 27//138 31//138
f 76//139 41//139 40//139
f 44//140 76//140 40//140
f 77//141 31//141 41//141
f 124//142 160//142 123//142
f 160//143 120//143 123//143
f 175//144 132//144 174//144
f 175//145 129//145 133//145
f 129//146 161//146 124//146
f 25//147 6//147 4//147
f 8//148 25//148 4//148
f 32//149 13//149 11//149
f 11//150 35//150 32//150
f 2//151 28//151 8//151
f 2//152 33//152 23//152
f 46//153 69//153 48//153
f 69//154 51//154 48//154
f 83//155 63//155 61//155
f 85//156 66//156 63//156
f 72//157 53//157 51//157
f 83//158 53//158 74//158
f 116//159 94//159 96//159
f 94//160 112//160 91//160
f 111//161 130//161 109//161
f 106//162 130//162 127//162
f 106//163 125//163 104//163
f 96//164 125//164 116//164
f 146//165 167//165 144//165
f 165//166 146//166 142//166
f 153//167 174//167 151//167
f 176//168 149//168 172//168
f 177//169 149//169 155//169
f 177//170 144//170 167//170
f 26//171 46//171 6//171
f 79//172 22//172 57//172
f 120//173 135//173 100//173
f 151//174 132//174 111//174
f 91//175 35//175 15//175
f 120//176 22//176 44//176
f 135//177 79//177 57//177
f 165//178 66//178 88//178
f 3//179 4//179 6//179
f 7//180 8//180 4//180
f 3//181 5//181 9//181
f 11//182 13//182 12//182
f 10//183 14//183 15//183
f 10//184 12//184 16//184
f 21//185 22//185 20//185
f 17//186 18//186 21//186
f 1//187 12//187 13//187
f 9//188 18//188 17//188
f 1//189 2//189 8//189
f 17//190 19//190 16//190
f 1//191 7//191 17//191
f 29//192 31//192 30//192
f 30//193 31//193 27//193
f 30//194 26//194 25//194
f 36//195 37//195 34//195
f 36//196 33//196 32//196
f 41//197 39//197 38//197
f 39//198 43//198 42//198
f 44//199 40//199 38//199
f 33//200 34//200 24//200
f 41//201 31//201 29//201
f 23//202 24//202 29//202
f 43//203 39//203 34//203
f 34//204 39//204 29//204
f 45//205 46//205 48//205
f 51//206 50//206 47//206
f 47//207 50//207 49//207
f 58//208 59//208 57//208
f 54//209 55//209 58//209
f 60//210 61//210 63//210
f 66//211 65//211 62//211
f 62//212 65//212 64//212
f 49//213 50//213 55//213
f 61//214 60//214 52//214
f 51//215 53//215 52//215
f 55//216 60//216 64//216
f 52//217 60//217 55//217
f 67//218 68//218 70//218
f 70//219 73//219 72//219
f 71//220 73//220 70//220
f 81//221 82//221 80//221
f 76//222 79//222 80//222
f 80//223 82//223 78//223
f 83//224 84//224 86//224
f 86//225 89//225 88//225
f 87//226 89//226 86//226
f 77//227 78//227 73//227
f 75//228 84//228 83//228
f 72//229 73//229 75//229
f 82//230 87//230 84//230
f 78//231 84//231 75//231
f 96//232 94//232 93//232
f 93//233 94//233 91//233
f 92//234 95//234 93//234
f 98//235 100//235 99//235
f 99//236 102//236 101//236
f 111//237 109//237 108//237
f 105//238 108//238 109//238
f 107//239 110//239 108//239
f 95//240 103//240 104//240
f 101//241 102//241 107//241
f 92//242 97//242 101//242
f 105//243 106//243 104//243
f 101//244 105//244 103//244
f 113//245 116//245 117//245
f 115//246 116//246 113//246
f 118//247 119//247 121//247
f 121//248 124//248 123//248
f 122//249 124//249 121//249
f 132//250 133//250 131//250
f 127//251 130//251 131//251
f 131//252 133//252 129//252
f 116//253 125//253 126//253
f 128//254 129//254 124//254
f 117//255 122//255 119//255
f 127//256 128//256 126//256
f 126//257 128//257 122//257
f 134//258 135//258 137//258
f 134//259 136//259 139//259
f 145//260 146//260 144//260
f 146//261 145//261 141//261
f 140//262 141//262 145//262
f 153//263 151//263 150//263
f 149//264 153//264 152//264
f 147//265 148//265 152//265
f 139//266 148//266 147//266
f 155//267 154//267 143//267
f 140//268 143//268 139//268
f 154//269 155//269 149//269
f 139//270 143//270 154//270
f 157//271 159//271 158//271
f 160//272 161//272 157//272
f 162//273 159//273 157//273
f 166//274 164//274 163//274
f 168//275 167//275 163//275
f 169//276 165//276 163//276
f 173//277 171//277 170//277
f 175//278 174//278 170//278
f 176//279 172//279 170//279
f 173//280 162//280 161//280
f 178//281 177//281 167//281
f 168//282 164//282 159//282
f 178//283 173//283 172//283
f 178//284 168//284 162//284
f 14//285 90//285 91//285
f 16//286 92//286 90//286
f 98//287 97//287 19//287
f 22//288 100//288 98//288
f 19//289 97//289 92//289
f 36//290 113//290 114//290
f 112//291 113//291 36//291
f 43//292 119//292 118//292
f 118//293 120//293 44//293
f 114//294 119//294 43//294
f 136//295 137//295 59//295
f 59//296 137//296 135//296
f 142//297 141//297 65//297
f 65//298 141//298 140//298
f 64//299 140//299 136//299
f 81//300 158//300 159//300
f 156//301 158//301 81//301
f 166//302 165//302 88//302
f 166//303 89//303 87//303
f 164//304 87//304 82//304
f 5//305 6//305 46//305
f 5//306 45//306 49//306
f 56//307 57//307 22//307
f 54//308 56//308 21//308
f 49//309 54//309 18//309
f 100//310 135//310 134//310
f 134//311 138//311 102//311
f 151//312 111//312 110//312
f 147//313 150//313 110//313
f 138//314 147//314 107//314
f 27//315 68//315 67//315
f 71//316 68//316 27//316
f 76//317 77//317 41//317
f 44//318 79//318 76//318
f 77//319 71//319 31//319
f 124//320 161//320 160//320
f 160//321 156//321 120//321
f 175//322 133//322 132//322
f 175//323 171//323 129//323
f 129//324 171//324 161//324
f 25//325 26//325 6//325
f 8//326 28//326 25//326
f 32//327 33//327 13//327
f 11//328 15//328 35//328
f 2//329 23//329 28//329
f 2//330 13//330 33//330
f 46//331 67//331 69//331
f 69//332 72//332 51//332
f 83//333 85//333 63//333
f 85//334 88//334 66//334
f 72//335 74//335 53//335
f 83//336 61//336 53//336
f 116//337 115//337 94//337
f 94//338 115//338 112//338
f 111//339 132//339 130//339
f 106//340 109//340 130//340
f 106//341 127//341 125//341
f 96//342 104//342 125//342
f 146//343 169//343 167//343
f 165//344 169//344 146//344
f 153//345 176//345 174//345
f 176//346 153//346 149//346
f 177//347 172//347 149//347
f 177//348 155//348 144//348
f 26//349 67//349 46//349
f 79//350 44//350 22//350
f 120//351 156//351 135//351
f 151//352 174//352 132//352
f 91//353 112//353 35//353
f 120//354 100//354 22//354
f 135//355 156//355 79//355
f 165//356 142//356 66//356
